PathFileType	4	(X/Y/Z)	OpenSim_Sub07_CSStiffKnee_Magnet.trc
DataRate	CameraRate	NumFrames	NumMarkers	Units	OrigDataRate	OrigDataStartFrame	OrigNumFrames
100	100	27	8	m	100	1684	6734
Frame#	Time	torso_imu_offset_imu	pelvis_imu_offset_imu	tibia_r_imu_offset_imu	femur_r_imu_offset_imu	tibia_l_imu_offset_imu	femur_l_imu_offset_imu	toes_r_imu_offset_imu	toes_l_imu_offset_imu
				X1	Y1	Z1	X2	Y2	Z2	X3	Y3	Z3	X4	Y4	Z4	X5	Y5	Z5	X6	Y6	Z6	X7	Y7	Z7	X8		Y8	Z8	

1684	16.83000000	0.92879668	0.22760727	0.03952322	-0.72128203	0.16013009	-0.62783064	-0.08355279	-0.81085120	0.22188482	-0.83876888	-0.14429899	-0.19017623	-0.65625086	0.46447473	0.21456835	-0.59439649	-0.17955640	0.30933599	-0.75085522	-0.31800743	0.39156249	-0.72830352	-0.21334098	-0.40061631
1685	16.84000000	0.92748768	0.23025304	0.03507336	-0.72289180	0.17055682	-0.62611609	-0.08034743	-0.80809920	0.23141272	-0.84487788	-0.13052824	-0.17334462	-0.65428340	0.47003155	0.21970347	-0.59295306	-0.17365189	0.31357910	-0.74941910	-0.32174874	0.37923367	-0.72992193	-0.21669417	-0.39795375
1686	16.85000000	0.92803865	0.23171155	0.03224828	-0.71327055	0.17463497	-0.62456240	-0.06898510	-0.80669376	0.23265862	-0.85604440	-0.11840646	-0.16791323	-0.64870285	0.47542969	0.22047955	-0.59130525	-0.16948895	0.31887824	-0.75072354	-0.33806165	0.36039561	-0.73682758	-0.21387080	-0.39149834
1687	16.86000000	0.92469574	0.23084815	0.02902600	-0.71580244	0.17792128	-0.62651936	-0.06817950	-0.80513918	0.21919093	-0.85292160	-0.10375510	-0.15463281	-0.64965685	0.47580352	0.22110859	-0.58698488	-0.16584708	0.32108702	-0.75102238	-0.34787648	0.33948755	-0.73878556	-0.20879606	-0.39972195
1688	16.87000000	0.92813341	0.22948604	0.02795420	-0.71714228	0.17921533	-0.62100923	-0.07871514	-0.81081904	0.21410163	-0.85249002	-0.09444989	-0.14929367	-0.64961075	0.48244602	0.22290259	-0.58381782	-0.16288636	0.33005433	-0.75180828	-0.35996065	0.32535450	-0.73637796	-0.20852033	-0.39205116
1689	16.88000000	0.92810228	0.23308080	0.02566778	-0.71655844	0.17776325	-0.62836425	-0.08421500	-0.80984501	0.19338358	-0.86215426	-0.08092774	-0.15173050	-0.64487830	0.48151822	0.22643960	-0.58622460	-0.15990324	0.32461611	-0.75403496	-0.37398330	0.30457487	-0.74650575	-0.20803024	-0.38776591
1690	16.89000000	0.92798738	0.23543138	0.02901834	-0.71376136	0.18696632	-0.63383464	-0.09537857	-0.81021426	0.18137284	-0.86278663	-0.07335413	-0.14329553	-0.63780469	0.49236017	0.22775865	-0.58010563	-0.15830219	0.32736475	-0.76037927	-0.38658111	0.27899313	-0.74550893	-0.21694160	-0.38668599
1691	16.90000000	0.93042885	0.23418938	0.02649550	-0.71072892	0.18910840	-0.63206737	-0.11186258	-0.81446559	0.16737427	-0.86113376	-0.06143701	-0.14098407	-0.63945929	0.49393841	0.22342019	-0.57610763	-0.15234543	0.32650124	-0.75995118	-0.38849155	0.25527835	-0.75115957	-0.21877198	-0.37899299
1692	16.91000000	0.92645712	0.23926338	0.02636727	-0.71031507	0.18896628	-0.63164628	-0.12700165	-0.81745498	0.16026891	-0.86442381	-0.05056752	-0.13541439	-0.63708933	0.49431375	0.22405333	-0.57080382	-0.14910127	0.33576788	-0.76545803	-0.39783352	0.22995160	-0.75436732	-0.20980658	-0.37310710
1693	16.92000000	0.92999626	0.23862846	0.02791036	-0.70898784	0.18887581	-0.63178116	-0.14700813	-0.81074915	0.15848532	-0.86410125	-0.04535672	-0.13208890	-0.63131709	0.50547707	0.22835263	-0.57374445	-0.13910154	0.33275881	-0.77041128	-0.40519910	0.20055874	-0.75471528	-0.21050611	-0.36857030
1694	16.93000000	0.93020049	0.23673985	0.03140750	-0.70670337	0.19419348	-0.62913948	-0.16876118	-0.80617013	0.15392096	-0.87055434	-0.03820912	-0.12730542	-0.62992608	0.50580382	0.23459097	-0.56743026	-0.13765682	0.34010040	-0.77223416	-0.40659831	0.17714538	-0.76114935	-0.21512418	-0.36494782
1695	16.94000000	0.92597882	0.23959767	0.02708465	-0.69906719	0.19796882	-0.63466156	-0.19646049	-0.79683718	0.15832992	-0.86813460	-0.03085160	-0.13134595	-0.62626071	0.51162420	0.23227703	-0.56835618	-0.14069561	0.34262018	-0.77784110	-0.40153400	0.14624905	-0.76427982	-0.21579994	-0.36120838
1696	16.95000000	0.92805142	0.23885583	0.02476403	-0.70211808	0.19522939	-0.63587144	-0.22329938	-0.79048107	0.15658633	-0.86587550	-0.02716180	-0.13225730	-0.62022723	0.51147334	0.23334947	-0.56843502	-0.13270618	0.34146593	-0.78221792	-0.39830476	0.11551055	-0.76105180	-0.21410085	-0.35136676
1697	16.96000000	0.93109218	0.24167172	0.03133513	-0.70335891	0.20557506	-0.63513750	-0.24627587	-0.78393286	0.15850713	-0.86725698	-0.02295155	-0.12948739	-0.61901782	0.51793555	0.22852820	-0.56786199	-0.13258633	0.34822795	-0.78317360	-0.39540616	0.08230004	-0.76205539	-0.21798620	-0.34802159
1698	16.97000000	0.92741255	0.23672524	0.03564761	-0.69847948	0.20189950	-0.63428728	-0.27911531	-0.76800148	0.16489902	-0.86638511	-0.01852266	-0.12813043	-0.61648946	0.52633847	0.23016033	-0.56125890	-0.12409184	0.34310079	-0.79053071	-0.38748894	0.04018729	-0.76268579	-0.22029284	-0.34927625
1699	16.98000000	0.92918002	0.23556025	0.03294871	-0.69983705	0.20135892	-0.63976858	-0.30727339	-0.75880471	0.16807661	-0.87157412	-0.01084476	-0.12825204	-0.61564188	0.53284259	0.23379009	-0.55581730	-0.12113606	0.34829348	-0.79158848	-0.37712055	-0.00260236	-0.77007464	-0.21902310	-0.34381844
1700	16.99000000	0.93030917	0.23685570	0.03410553	-0.69529574	0.20565057	-0.64460021	-0.33189039	-0.74915077	0.17387843	-0.87162122	-0.00474275	-0.12509386	-0.61338203	0.53861012	0.23102200	-0.56169325	-0.12015190	0.35305277	-0.78057967	-0.36569870	-0.03803668	-0.76587223	-0.22482729	-0.33977673
1701	17	0.92353694	0.24083835	0.04027264	-0.69342928	0.20146066	-0.64785845	-0.35974580	-0.73147313	0.18097824	-0.87197784	-0.00520476	-0.12630877	-0.60496102	0.53922873	0.22858782	-0.55641656	-0.11005833	0.34856486	-0.77092891	-0.35006668	-0.07260016	-0.76465304	-0.22731739	-0.33410354
1702	17.01000000	0.93137474	0.23813609	0.04274332	-0.69165045	0.20559923	-0.64774081	-0.38599731	-0.71648907	0.18597196	-0.87670765	-0.00241960	-0.12547751	-0.60527400	0.54120539	0.23373243	-0.54654339	-0.10897117	0.34639589	-0.76611573	-0.33771988	-0.10963607	-0.76475963	-0.22489712	-0.32940728
1703	17.02000000	0.92458769	0.23317978	0.03831577	-0.69260220	0.20734535	-0.64732462	-0.41393415	-0.69047239	0.19250351	-0.87038129	0.00265149	-0.11482826	-0.60135193	0.54732304	0.23356699	-0.54975391	-0.10643606	0.35252546	-0.75531020	-0.32805690	-0.13794636	-0.76563512	-0.22595904	-0.32803342
1704	17.03000000	0.92357451	0.23743099	0.04251374	-0.69000994	0.20768241	-0.64932255	-0.45241324	-0.67241096	0.19918962	-0.87044880	0.00769824	-0.12163538	-0.59303049	0.55369371	0.23194231	-0.54626568	-0.10434315	0.35857107	-0.74440312	-0.30945045	-0.16071170	-0.76607176	-0.22802691	-0.32687721
1705	17.04000000	0.92696356	0.23918804	0.04320641	-0.68594840	0.21229583	-0.65181577	-0.47418819	-0.65320495	0.20369717	-0.87438930	0.00536582	-0.11746619	-0.59160931	0.56292268	0.23326941	-0.54598932	-0.09780654	0.35849647	-0.72996458	-0.29230057	-0.18717838	-0.76111822	-0.23118125	-0.33089931
1706	17.05000000	0.92775475	0.23546829	0.05127997	-0.68705663	0.21077970	-0.64700099	-0.50732879	-0.62920655	0.18792878	-0.87051682	0.00313240	-0.11440514	-0.58435763	0.56475496	0.22949145	-0.54317933	-0.09234865	0.35789955	-0.71933387	-0.28095155	-0.21355888	-0.76056299	-0.23415101	-0.32346218
1707	17.06000000	0.92704288	0.23534292	0.05141880	-0.68283123	0.21110573	-0.65350079	-0.53330287	-0.61459259	0.17890644	-0.86850953	0.00418080	-0.11996277	-0.58407911	0.56904594	0.22552135	-0.53607916	-0.09678157	0.36221995	-0.71110548	-0.27079945	-0.23468844	-0.76212319	-0.23072572	-0.32265387
1708	17.07000000	0.92378920	0.23355119	0.04704530	-0.68409621	0.20984581	-0.65854817	-0.55960683	-0.59852684	0.16247861	-0.86586894	-0.00015400	-0.11753120	-0.57635221	0.57584058	0.22757083	-0.53999042	-0.09136804	0.36589073	-0.70023546	-0.26340290	-0.25423814	-0.75924081	-0.22594456	-0.32326583
1709	17.08000000	0.92894002	0.23300456	0.05175138	-0.68130596	0.21370744	-0.65648703	-0.58183093	-0.58017414	0.14075878	-0.87324531	-0.00256264	-0.11998395	-0.57096152	0.58444995	0.23369182	-0.53691102	-0.08437602	0.36990454	-0.69121963	-0.26484912	-0.27796136	-0.75851135	-0.22776666	-0.32596539
1710	17.09000000	0.92316262	0.23169696	0.05110383	-0.67844230	0.20731469	-0.65610929	-0.59831096	-0.56712329	0.12202393	-0.86893970	-0.01082269	-0.11890529	-0.57093036	0.58851292	0.23257762	-0.52937633	-0.08629582	0.36458240	-0.67996837	-0.26786962	-0.30398123	-0.75989579	-0.22944641	-0.32251107
